#pragma bank 9
#include "3p/hUGEDriver.h"
#include <stddef.h>

static const unsigned char order_cnt = 2;

static const unsigned char P0[] = {
    DN(D_4,5,0x000),
    DN(___,0,0x000),
    DN(D_3,5,0x000),
    DN(___,0,0x000),
    DN(D_4,5,0x000),
    DN(___,0,0x000),
    DN(D_3,5,0x000),
    DN(___,0,0x000),
    DN(D_4,5,0x000),
    DN(___,0,0x000),
    DN(D_3,5,0x000),
    DN(___,0,0x000),
    DN(D_4,5,0x000),
    DN(___,0,0x000),
    DN(D_3,5,0x000),
    DN(___,0,0x000),
    DN(C_3,5,0x000),
    DN(D_3,5,0x000),
    DN(Ds3,5,0x000),
    DN(___,0,0x000),
    DN(___,0,0x000),
    DN(___,0,0x000),
    DN(___,0,0x000),
    DN(___,0,0x000),
    DN(___,0,0x000),
    DN(___,0,0x000),
    DN(___,0,0x000),
    DN(___,0,0x000),
    DN(___,0,0x000),
    DN(___,0,0x000),
    DN(___,0,0x000),
    DN(___,0,0x000),
    DN(D_4,5,0x000),
    DN(___,0,0x000),
    DN(D_3,5,0x000),
    DN(___,0,0x000),
    DN(D_4,5,0x000),
    DN(___,0,0x000),
    DN(D_3,5,0x000),
    DN(___,0,0x000),
    DN(D_4,5,0x000),
    DN(___,0,0x000),
    DN(D_3,5,0x000),
    DN(___,0,0x000),
    DN(D_4,5,0x000),
    DN(___,0,0x000),
    DN(D_3,5,0x000),
    DN(___,0,0x000),
    DN(C_3,5,0x000),
    DN(D_3,5,0x000),
    DN(Ds3,5,0x000),
    DN(___,0,0x000),
    DN(___,0,0x000),
    DN(___,0,0x000),
    DN(___,0,0x000),
    DN(___,0,0x000),
    DN(___,0,0x000),
    DN(___,0,0x000),
    DN(___,0,0x000),
    DN(___,0,0x000),
    DN(___,0,0x000),
    DN(___,0,0x000),
    DN(___,0,0x000),
    DN(___,0,0x000),
};
static const unsigned char P1[] = {
    DN(___,0,0x000),
    DN(___,0,0x000),
    DN(___,0,0x000),
    DN(___,0,0x000),
    DN(___,0,0x000),
    DN(___,0,0x000),
    DN(___,0,0x000),
    DN(___,0,0x000),
    DN(___,0,0x000),
    DN(___,0,0x000),
    DN(___,0,0x000),
    DN(___,0,0x000),
    DN(___,0,0x000),
    DN(___,0,0x000),
    DN(___,0,0x000),
    DN(___,0,0x000),
    DN(___,0,0x000),
    DN(___,0,0x000),
    DN(___,0,0x000),
    DN(___,0,0x000),
    DN(___,0,0x000),
    DN(___,0,0x000),
    DN(___,0,0x000),
    DN(___,0,0x000),
    DN(___,0,0x000),
    DN(___,0,0x000),
    DN(___,0,0x000),
    DN(___,0,0x000),
    DN(___,0,0x000),
    DN(___,0,0x000),
    DN(___,0,0x000),
    DN(___,0,0x000),
    DN(___,0,0x000),
    DN(___,0,0x000),
    DN(___,0,0x000),
    DN(___,0,0x000),
    DN(___,0,0x000),
    DN(___,0,0x000),
    DN(___,0,0x000),
    DN(___,0,0x000),
    DN(___,0,0x000),
    DN(___,0,0x000),
    DN(___,0,0x000),
    DN(___,0,0x000),
    DN(___,0,0x000),
    DN(___,0,0x000),
    DN(___,0,0x000),
    DN(___,0,0x000),
    DN(___,0,0x000),
    DN(___,0,0x000),
    DN(___,0,0x000),
    DN(___,0,0x000),
    DN(___,0,0x000),
    DN(___,0,0x000),
    DN(___,0,0x000),
    DN(___,0,0x000),
    DN(___,0,0x000),
    DN(___,0,0x000),
    DN(___,0,0x000),
    DN(___,0,0x000),
    DN(___,0,0x000),
    DN(___,0,0x000),
    DN(___,0,0x000),
    DN(___,0,0x000),
};
static const unsigned char P2[] = {
    DN(D_5,7,0x000),
    DN(___,0,0x000),
    DN(___,0,0x000),
    DN(___,0,0x000),
    DN(D_4,7,0x000),
    DN(___,0,0x000),
    DN(___,0,0x000),
    DN(___,0,0x000),
    DN(C_4,7,0x000),
    DN(___,0,0x000),
    DN(___,0,0x000),
    DN(___,0,0x000),
    DN(D_4,7,0x000),
    DN(___,0,0x000),
    DN(___,0,0x000),
    DN(___,0,0x000),
    DN(Ds4,7,0x000),
    DN(___,0,0x000),
    DN(C_4,7,0x000),
    DN(___,0,0x000),
    DN(Ds4,7,0x000),
    DN(___,0,0x000),
    DN(C_4,7,0x000),
    DN(___,0,0x000),
    DN(Ds4,7,0x000),
    DN(___,0,0x000),
    DN(___,0,0x000),
    DN(___,0,0x000),
    DN(___,0,0x000),
    DN(___,0,0x000),
    DN(___,0,0x000),
    DN(___,0,0x000),
    DN(D_5,7,0x000),
    DN(___,0,0x000),
    DN(___,0,0x000),
    DN(___,0,0x000),
    DN(D_4,7,0x000),
    DN(___,0,0x000),
    DN(___,0,0x000),
    DN(___,0,0x000),
    DN(C_4,7,0x000),
    DN(___,0,0x000),
    DN(___,0,0x000),
    DN(___,0,0x000),
    DN(D_4,7,0x000),
    DN(___,0,0x000),
    DN(___,0,0x000),
    DN(___,0,0x000),
    DN(Ds4,7,0x000),
    DN(___,0,0x000),
    DN(C_4,7,0x000),
    DN(___,0,0x000),
    DN(Ds4,7,0x000),
    DN(___,0,0x000),
    DN(C_4,7,0x000),
    DN(___,0,0x000),
    DN(Ds4,7,0x000),
    DN(___,0,0x000),
    DN(___,0,0x000),
    DN(___,0,0x000),
    DN(___,0,0x000),
    DN(___,0,0x000),
    DN(___,0,0x000),
    DN(___,0,0x000),
};
static const unsigned char P3[] = {
    DN(C_8,1,0x000),
    DN(C_8,1,0x000),
    DN(___,0,0x000),
    DN(___,0,0x000),
    DN(D_8,1,0x000),
    DN(D_8,1,0x000),
    DN(___,0,0x000),
    DN(___,0,0x000),
    DN(C_8,1,0x000),
    DN(C_8,1,0x000),
    DN(___,0,0x000),
    DN(___,0,0x000),
    DN(D_8,1,0x000),
    DN(D_8,1,0x000),
    DN(___,0,0x000),
    DN(___,0,0x000),
    DN(C_8,1,0x000),
    DN(C_8,1,0x000),
    DN(___,0,0x000),
    DN(___,0,0x000),
    DN(D_8,1,0x000),
    DN(D_8,1,0x000),
    DN(___,0,0x000),
    DN(___,0,0x000),
    DN(C_8,1,0x000),
    DN(C_8,1,0x000),
    DN(___,0,0x000),
    DN(___,0,0x000),
    DN(D_8,1,0x000),
    DN(D_8,1,0x000),
    DN(___,0,0x000),
    DN(___,0,0x000),
    DN(C_8,1,0x000),
    DN(C_8,1,0x000),
    DN(___,0,0x000),
    DN(___,0,0x000),
    DN(D_8,1,0x000),
    DN(D_8,1,0x000),
    DN(___,0,0x000),
    DN(___,0,0x000),
    DN(C_8,1,0x000),
    DN(C_8,1,0x000),
    DN(___,0,0x000),
    DN(___,0,0x000),
    DN(D_8,1,0x000),
    DN(D_8,1,0x000),
    DN(___,0,0x000),
    DN(___,0,0x000),
    DN(C_8,1,0x000),
    DN(C_8,1,0x000),
    DN(___,0,0x000),
    DN(___,0,0x000),
    DN(D_8,1,0x000),
    DN(D_8,1,0x000),
    DN(___,0,0x000),
    DN(___,0,0x000),
    DN(C_8,1,0x000),
    DN(C_8,1,0x000),
    DN(___,0,0x000),
    DN(___,0,0x000),
    DN(D_8,1,0x000),
    DN(D_8,1,0x000),
    DN(___,0,0x000),
    DN(___,0,0x000),
};

static const unsigned char* const order1[] = {P0};
static const unsigned char* const order2[] = {P1};
static const unsigned char* const order3[] = {P2};
static const unsigned char* const order4[] = {P3};

static const hUGEDutyInstr_t duty_instruments[] = {
    {8,0,240,0,128},
    {8,64,240,0,128},
    {8,128,240,0,128},
    {8,192,240,0,128},
    {8,0,241,0,128},
};
static const hUGEWaveInstr_t wave_instruments[] = {
    {0,32,0,0,128},
    {0,32,1,0,128},
    {0,32,2,0,128},
    {0,32,3,0,128},
    {0,32,4,0,128},
    {0,32,5,0,128},
    {0,32,6,0,128},
};
static const hUGENoiseInstr_t noise_instruments[] = {
    {178,0,73,0,0},
};

static const unsigned char waves[] = {
    223,255,237,203,166,68,51,51,51,51,51,68,85,102,138,207,
    0,0,0,0,255,255,255,255,255,255,255,255,255,255,255,255,
    0,0,0,0,0,0,0,0,255,255,255,255,255,255,255,255,
    0,0,0,0,0,0,0,0,0,0,0,0,255,255,255,255,
    0,1,18,35,52,69,86,103,120,137,154,171,188,205,222,239,
    254,220,186,152,118,84,50,16,18,52,86,120,154,188,222,255,
    122,205,219,117,33,19,104,189,220,151,65,1,71,156,221,184,
};

const hUGESong_t bandit = {7, &order_cnt, order1, order2, order3,order4, duty_instruments, wave_instruments, noise_instruments, NULL, waves};
